<svg width="112" height="35" viewBox="0 0 112 35" fill="none" xmlns="http://www.w3.org/2000/svg">
<g opacity="0.65">
<circle cx="18.1605" cy="17.2936" r="16" transform="rotate(-94.8444 18.1605 17.2936)" fill="url(#paint0_diamond_168_154)" fill-opacity="0.63"/>
<circle cx="18.1605" cy="17.2936" r="16" transform="rotate(-94.8444 18.1605 17.2936)" fill="url(#paint1_linear_168_154)" fill-opacity="0.43"/>
<circle cx="18.1605" cy="17.2936" r="15.75" transform="rotate(-94.8444 18.1605 17.2936)" stroke="url(#paint2_linear_168_154)" stroke-opacity="0.33" stroke-width="0.5"/>
</g>
<g filter="url(#filter0_b_168_154)">
<circle cx="18" cy="17.2927" r="12" fill="url(#paint3_diamond_168_154)" fill-opacity="0.85"/>
<circle cx="18" cy="17.2927" r="12" fill="url(#paint4_linear_168_154)" fill-opacity="0.32"/>
<circle cx="18" cy="17.2927" r="11.75" stroke="url(#paint5_linear_168_154)" stroke-width="0.5"/>
</g>
<path d="M15.5338 11.4227L16.1615 11.2221C16.7501 11.0342 17.3789 11.3381 17.6309 11.932L18.1326 13.115C18.3507 13.6301 18.2294 14.2361 17.8327 14.613L16.7273 15.6618C16.7956 16.2895 17.0067 16.9072 17.3602 17.5151C17.6959 18.1031 18.1462 18.6179 18.6844 19.0288L20.0121 18.5855C20.5149 18.4181 21.0632 18.6111 21.3712 19.0644L22.0905 20.1202C22.4492 20.6476 22.3845 21.3744 21.9394 21.8212L21.4628 22.3001C20.988 22.7767 20.3096 22.95 19.6825 22.754C18.2008 22.292 16.8399 20.9206 15.5974 18.6397C14.3531 16.3554 13.9139 14.4164 14.2802 12.8251C14.4342 12.1554 14.9108 11.6216 15.5338 11.4227Z" fill="#FFFAFD"/>
<path opacity="0.7" d="M49.8809 12.9995H48.4805V9.13232H44.5312V12.9995H43.125V4.43311H44.5312V7.93701H48.4805V4.43311H49.8809V12.9995ZM54.3108 6.39014C55.1311 6.39014 55.7502 6.57178 56.1682 6.93506C56.5901 7.29834 56.801 7.86475 56.801 8.63428V12.9995H55.8225L55.5588 12.0796H55.512C55.3284 12.314 55.1389 12.5073 54.9436 12.6597C54.7483 12.812 54.5217 12.9253 54.2639 12.9995C54.01 13.0776 53.6995 13.1167 53.3323 13.1167C52.9455 13.1167 52.5998 13.0464 52.2952 12.9058C51.9905 12.7612 51.7502 12.5425 51.5745 12.2495C51.3987 11.9565 51.3108 11.5854 51.3108 11.1362C51.3108 10.4683 51.5588 9.96631 52.0549 9.63037C52.5549 9.29443 53.3088 9.10889 54.3166 9.07373L55.4416 9.03271V8.69287C55.4416 8.24365 55.3362 7.92334 55.1252 7.73193C54.9182 7.54053 54.6252 7.44482 54.2463 7.44482C53.9221 7.44482 53.6077 7.4917 53.303 7.58545C52.9983 7.6792 52.7014 7.79443 52.4123 7.93115L51.967 6.9585C52.2834 6.79053 52.6428 6.65381 53.0452 6.54834C53.4514 6.44287 53.8733 6.39014 54.3108 6.39014ZM55.4358 9.8999L54.5979 9.9292C53.9104 9.95264 53.428 10.0698 53.1506 10.2808C52.8733 10.4917 52.7346 10.7808 52.7346 11.1479C52.7346 11.4683 52.8303 11.7026 53.0217 11.8511C53.2131 11.9956 53.4651 12.0679 53.7776 12.0679C54.2541 12.0679 54.6487 11.9331 54.9612 11.6636C55.2776 11.3901 55.4358 10.9897 55.4358 10.4624V9.8999ZM58.1196 9.10889C58.1196 8.16748 58.2231 7.3667 58.4302 6.70654C58.6372 6.04639 58.9634 5.51709 59.4087 5.11865C59.854 4.72021 60.4321 4.44873 61.143 4.3042C61.604 4.19873 62.0727 4.10889 62.5493 4.03467C63.0259 3.96045 63.5024 3.88818 63.979 3.81787L64.1665 5.03076C63.9438 5.05811 63.7055 5.09131 63.4516 5.13037C63.1977 5.16553 62.9419 5.20264 62.6841 5.2417C62.4302 5.28076 62.186 5.32178 61.9516 5.36475C61.7212 5.40381 61.5141 5.44287 61.3305 5.48193C60.9634 5.56006 60.6528 5.68896 60.3989 5.86865C60.1489 6.04443 59.9536 6.30225 59.813 6.64209C59.6723 6.98193 59.5884 7.43506 59.561 8.00146H59.6372C59.7427 7.84131 59.8891 7.68115 60.0766 7.521C60.2641 7.36084 60.4907 7.22803 60.7563 7.12256C61.0259 7.01318 61.3325 6.9585 61.6763 6.9585C62.2153 6.9585 62.6723 7.07178 63.0473 7.29834C63.4263 7.5249 63.7134 7.85303 63.9087 8.28271C64.1079 8.7124 64.2075 9.22998 64.2075 9.83545C64.2075 10.5581 64.0786 11.1636 63.8208 11.6519C63.5669 12.1362 63.2114 12.5015 62.7544 12.7476C62.2973 12.9937 61.7641 13.1167 61.1548 13.1167C60.686 13.1167 60.2641 13.0288 59.8891 12.853C59.518 12.6772 59.1997 12.4194 58.9341 12.0796C58.6723 11.7358 58.4712 11.3159 58.3305 10.8198C58.1899 10.3198 58.1196 9.74951 58.1196 9.10889ZM61.2485 11.9858C61.561 11.9858 61.8305 11.9194 62.0571 11.7866C62.2876 11.6538 62.4653 11.439 62.5903 11.1421C62.7192 10.8452 62.7837 10.4526 62.7837 9.96436C62.7837 9.36279 62.6743 8.89014 62.4555 8.54639C62.2407 8.19873 61.8852 8.0249 61.3891 8.0249C61.0845 8.0249 60.8052 8.09326 60.5513 8.22998C60.2973 8.3667 60.0825 8.52686 59.9067 8.71045C59.7309 8.89014 59.6059 9.04834 59.5317 9.18506C59.5317 9.54053 59.5571 9.88428 59.6079 10.2163C59.6626 10.5483 59.7524 10.8491 59.8774 11.1187C60.0063 11.3843 60.1821 11.5952 60.4048 11.7515C60.6274 11.9077 60.9087 11.9858 61.2485 11.9858ZM68.8777 6.39014C69.6472 6.39014 70.2644 6.67139 70.7292 7.23389C71.198 7.79639 71.4323 8.63232 71.4323 9.7417C71.4323 10.4761 71.323 11.0952 71.1042 11.5991C70.8894 12.0991 70.5866 12.478 70.196 12.7358C69.8093 12.9897 69.3581 13.1167 68.8425 13.1167C68.5144 13.1167 68.2292 13.0737 67.987 12.9878C67.7448 12.9019 67.5378 12.7905 67.3659 12.6538C67.1941 12.5132 67.0495 12.3608 66.9323 12.1968H66.8503C66.8698 12.353 66.8874 12.5269 66.903 12.7183C66.9226 12.9058 66.9323 13.0776 66.9323 13.2339V15.8765H65.5495V6.51318H66.6745L66.8679 7.40967H66.9323C67.0534 7.22607 67.1999 7.05615 67.3718 6.8999C67.5476 6.74365 67.7585 6.62061 68.0046 6.53076C68.2546 6.43701 68.5456 6.39014 68.8777 6.39014ZM68.5085 7.51514C68.1296 7.51514 67.8249 7.59131 67.5945 7.74365C67.3679 7.89209 67.2019 8.1167 67.0964 8.41748C66.9948 8.71826 66.9402 9.09521 66.9323 9.54834V9.7417C66.9323 10.2222 66.9812 10.6304 67.0788 10.9663C67.1804 11.2983 67.3464 11.5522 67.5769 11.728C67.8113 11.8999 68.1277 11.9858 68.5261 11.9858C68.862 11.9858 69.1394 11.894 69.3581 11.7104C69.5808 11.5269 69.7468 11.2651 69.8562 10.9253C69.9655 10.5854 70.0202 10.1851 70.0202 9.72412C70.0202 9.0249 69.8952 8.48193 69.6452 8.09521C69.3991 7.7085 69.0202 7.51514 68.5085 7.51514ZM75.3291 6.39014C76.1494 6.39014 76.7685 6.57178 77.1865 6.93506C77.6084 7.29834 77.8193 7.86475 77.8193 8.63428V12.9995H76.8408L76.5771 12.0796H76.5302C76.3466 12.314 76.1572 12.5073 75.9619 12.6597C75.7666 12.812 75.54 12.9253 75.2822 12.9995C75.0283 13.0776 74.7177 13.1167 74.3505 13.1167C73.9638 13.1167 73.6181 13.0464 73.3134 12.9058C73.0088 12.7612 72.7685 12.5425 72.5927 12.2495C72.417 11.9565 72.3291 11.5854 72.3291 11.1362C72.3291 10.4683 72.5771 9.96631 73.0732 9.63037C73.5732 9.29443 74.3271 9.10889 75.3349 9.07373L76.4599 9.03271V8.69287C76.4599 8.24365 76.3545 7.92334 76.1435 7.73193C75.9365 7.54053 75.6435 7.44482 75.2646 7.44482C74.9404 7.44482 74.6259 7.4917 74.3213 7.58545C74.0166 7.6792 73.7197 7.79443 73.4306 7.93115L72.9853 6.9585C73.3017 6.79053 73.6611 6.65381 74.0634 6.54834C74.4697 6.44287 74.8916 6.39014 75.3291 6.39014ZM76.4541 9.8999L75.6162 9.9292C74.9287 9.95264 74.4463 10.0698 74.1689 10.2808C73.8916 10.4917 73.7529 10.7808 73.7529 11.1479C73.7529 11.4683 73.8486 11.7026 74.04 11.8511C74.2314 11.9956 74.4834 12.0679 74.7959 12.0679C75.2724 12.0679 75.667 11.9331 75.9795 11.6636C76.2959 11.3901 76.4541 10.9897 76.4541 10.4624V9.8999ZM84.4055 7.59717H82.2727V12.9995H80.9016V7.59717H78.7805V6.51318H84.4055V7.59717ZM86.8022 9.10303H88.4135C89.0229 9.10303 89.5268 9.17334 89.9252 9.31396C90.3276 9.45068 90.6284 9.65771 90.8276 9.93506C91.0268 10.2124 91.1264 10.5601 91.1264 10.978C91.1264 11.3882 91.0327 11.7456 90.8452 12.0503C90.6577 12.3511 90.3647 12.5854 89.9663 12.7534C89.5717 12.9175 89.0561 12.9995 88.4194 12.9995H85.4194V6.51318H86.8022V9.10303ZM89.7436 11.0132C89.7436 10.689 89.6225 10.4604 89.3803 10.3276C89.1381 10.1909 88.7924 10.1226 88.3432 10.1226H86.8022V11.9858H88.3549C88.7651 11.9858 89.0991 11.9116 89.3569 11.7632C89.6147 11.6108 89.7436 11.3608 89.7436 11.0132ZM48.4395 24.1772C48.4395 24.5522 48.3242 24.8589 48.0938 25.0972C47.8672 25.3315 47.5547 25.4858 47.1562 25.5601V25.6069C47.582 25.6616 47.9375 25.812 48.2227 26.0581C48.5078 26.3042 48.6504 26.646 48.6504 27.0835C48.6504 27.4546 48.5566 27.7847 48.3691 28.0737C48.1855 28.3589 47.8926 28.5854 47.4902 28.7534C47.0918 28.9175 46.5703 28.9995 45.9258 28.9995H42.9844V22.5132H45.9141C46.3984 22.5132 46.8301 22.5659 47.209 22.6714C47.5918 22.7769 47.8926 22.9507 48.1113 23.1929C48.3301 23.4351 48.4395 23.7632 48.4395 24.1772ZM47.2148 27.0366C47.2148 26.7163 47.0918 26.4858 46.8457 26.3452C46.6035 26.2046 46.248 26.1343 45.7793 26.1343H44.3672V27.9858H45.8086C46.2461 27.9858 46.5898 27.9136 46.8398 27.769C47.0898 27.6206 47.2148 27.3765 47.2148 27.0366ZM47.0391 24.3003C47.0391 24.0464 46.9434 23.8589 46.752 23.7378C46.5605 23.6128 46.2598 23.5503 45.8496 23.5503H44.3672V25.1206H45.6621C46.1152 25.1206 46.457 25.0562 46.6875 24.9272C46.9219 24.7944 47.0391 24.5854 47.0391 24.3003ZM63.1118 20.4331L60.8735 28.9995H59.3384L57.9087 23.8667C57.8735 23.7417 57.8345 23.5933 57.7915 23.4214C57.7485 23.2495 57.7055 23.0737 57.6626 22.894C57.6235 22.7144 57.5884 22.5503 57.5571 22.4019C57.5298 22.2495 57.5102 22.1323 57.4985 22.0503C57.4907 22.1323 57.4731 22.2476 57.4458 22.396C57.4184 22.5444 57.3852 22.7085 57.3462 22.8882C57.311 23.064 57.272 23.2397 57.229 23.4155C57.186 23.5874 57.147 23.7397 57.1118 23.8726L55.7055 28.9995H54.1763L51.9438 20.4331H53.3559L54.5923 25.4546C54.6313 25.6147 54.6704 25.7886 54.7095 25.9761C54.7524 26.1597 54.7915 26.3452 54.8266 26.5327C54.8657 26.7202 54.9009 26.9038 54.9321 27.0835C54.9634 27.2593 54.9888 27.4194 55.0083 27.564C55.0278 27.4155 55.0532 27.2515 55.0845 27.0718C55.1157 26.8882 55.1489 26.7026 55.1841 26.5151C55.2231 26.3237 55.2622 26.1401 55.3013 25.9644C55.3442 25.7886 55.3872 25.6304 55.4302 25.4897L56.8247 20.4331H58.1958L59.6196 25.5073C59.6626 25.6519 59.7036 25.814 59.7427 25.9937C59.7856 26.1733 59.8266 26.3569 59.8657 26.5444C59.9048 26.7319 59.9399 26.9136 59.9712 27.0894C60.0024 27.2651 60.0278 27.4233 60.0473 27.564C60.0747 27.3726 60.1098 27.1538 60.1528 26.9077C60.1958 26.6616 60.2446 26.4116 60.2993 26.1577C60.354 25.9038 60.4087 25.6694 60.4634 25.4546L61.6938 20.4331H63.1118ZM65.321 19.8823V22.1733C65.321 22.4116 65.3132 22.644 65.2976 22.8706C65.2859 23.0972 65.2722 23.2729 65.2566 23.3979H65.3327C65.4695 23.1714 65.6374 22.9858 65.8366 22.8413C66.0359 22.6929 66.2585 22.5815 66.5046 22.5073C66.7546 22.4331 67.0202 22.396 67.3015 22.396C67.7976 22.396 68.2195 22.48 68.5671 22.6479C68.9148 22.812 69.1804 23.0679 69.364 23.4155C69.5515 23.7632 69.6452 24.2144 69.6452 24.769V28.9995H68.2683V25.0269C68.2683 24.5229 68.1648 24.146 67.9577 23.896C67.7507 23.6421 67.4304 23.5151 66.9968 23.5151C66.5788 23.5151 66.2468 23.603 66.0007 23.7788C65.7585 23.9507 65.5847 24.2065 65.4792 24.5464C65.3738 24.8823 65.321 25.2925 65.321 25.7769V28.9995H63.9441V19.8823H65.321ZM73.8759 22.3901C74.6963 22.3901 75.3154 22.5718 75.7334 22.9351C76.1552 23.2983 76.3662 23.8647 76.3662 24.6343V28.9995H75.3877L75.124 28.0796H75.0771C74.8935 28.314 74.7041 28.5073 74.5088 28.6597C74.3134 28.812 74.0869 28.9253 73.8291 28.9995C73.5752 29.0776 73.2646 29.1167 72.8974 29.1167C72.5107 29.1167 72.165 29.0464 71.8603 28.9058C71.5556 28.7612 71.3154 28.5425 71.1396 28.2495C70.9638 27.9565 70.8759 27.5854 70.8759 27.1362C70.8759 26.4683 71.124 25.9663 71.6201 25.6304C72.1201 25.2944 72.874 25.1089 73.8818 25.0737L75.0068 25.0327V24.6929C75.0068 24.2437 74.9013 23.9233 74.6904 23.7319C74.4834 23.5405 74.1904 23.4448 73.8115 23.4448C73.4873 23.4448 73.1728 23.4917 72.8681 23.5854C72.5634 23.6792 72.2666 23.7944 71.9775 23.9312L71.5322 22.9585C71.8486 22.7905 72.208 22.6538 72.6103 22.5483C73.0166 22.4429 73.4384 22.3901 73.8759 22.3901ZM75.0009 25.8999L74.163 25.9292C73.4755 25.9526 72.9931 26.0698 72.7158 26.2808C72.4384 26.4917 72.2998 26.7808 72.2998 27.1479C72.2998 27.4683 72.3955 27.7026 72.5869 27.8511C72.7783 27.9956 73.0302 28.0679 73.3427 28.0679C73.8193 28.0679 74.2138 27.9331 74.5263 27.6636C74.8427 27.3901 75.0009 26.9897 75.0009 26.4624V25.8999ZM80.468 28.0034C80.6477 28.0034 80.8254 27.9878 81.0012 27.9565C81.177 27.9214 81.3371 27.8804 81.4816 27.8335V28.8765C81.3293 28.9429 81.132 28.9995 80.8898 29.0464C80.6477 29.0933 80.3957 29.1167 80.134 29.1167C79.7668 29.1167 79.4367 29.0562 79.1437 28.9351C78.8508 28.8101 78.6184 28.5972 78.4465 28.2964C78.2746 27.9956 78.1887 27.5796 78.1887 27.0483V23.562H77.3039V22.9468L78.2531 22.4604L78.7043 21.0718H79.5715V22.5132H81.4289V23.562H79.5715V27.0308C79.5715 27.3589 79.6535 27.603 79.8176 27.7632C79.9816 27.9233 80.1984 28.0034 80.468 28.0034ZM86.9194 27.1479C86.9194 27.5737 86.8159 27.9331 86.6088 28.2261C86.4018 28.519 86.0991 28.7417 85.7006 28.894C85.3061 29.0425 84.8217 29.1167 84.2475 29.1167C83.7944 29.1167 83.4038 29.0835 83.0756 29.0171C82.7514 28.9546 82.4448 28.8569 82.1557 28.7241V27.5347C82.4643 27.6792 82.81 27.8042 83.1928 27.9097C83.5795 28.0151 83.9448 28.0679 84.2885 28.0679C84.7416 28.0679 85.0678 27.9976 85.267 27.8569C85.4663 27.7124 85.5659 27.521 85.5659 27.2827C85.5659 27.1421 85.5248 27.0171 85.4428 26.9077C85.3647 26.7944 85.2163 26.6792 84.9975 26.562C84.7827 26.4409 84.4663 26.2964 84.0483 26.1284C83.6381 25.9644 83.2924 25.8003 83.0112 25.6362C82.7299 25.4722 82.517 25.2749 82.3725 25.0444C82.228 24.8101 82.1557 24.5112 82.1557 24.1479C82.1557 23.5737 82.3823 23.1382 82.8354 22.8413C83.2924 22.5405 83.8959 22.3901 84.6459 22.3901C85.0444 22.3901 85.4194 22.4312 85.7709 22.5132C86.1264 22.5913 86.4741 22.7065 86.8139 22.8589L86.3803 23.896C86.0873 23.7671 85.7924 23.6616 85.4955 23.5796C85.2026 23.4937 84.9038 23.4507 84.5991 23.4507C84.2436 23.4507 83.9721 23.5054 83.7846 23.6147C83.601 23.7241 83.5092 23.8804 83.5092 24.0835C83.5092 24.2358 83.5541 24.3647 83.644 24.4702C83.7338 24.5757 83.8881 24.6812 84.1069 24.7866C84.3295 24.8921 84.6381 25.0229 85.0327 25.1792C85.4194 25.3276 85.7534 25.4839 86.0346 25.6479C86.3198 25.8081 86.5385 26.0054 86.6909 26.2397C86.8432 26.4741 86.9194 26.7769 86.9194 27.1479ZM93.6169 28.9995L92.779 26.6206H89.5036L88.6657 28.9995H87.1833L90.3708 20.3979H91.9294L95.111 28.9995H93.6169ZM92.4157 25.4136L91.6012 23.0698C91.57 22.9683 91.5251 22.8257 91.4665 22.6421C91.4079 22.4546 91.3493 22.2651 91.2907 22.0737C91.2321 21.8784 91.1833 21.7144 91.1442 21.5815C91.1052 21.7417 91.0563 21.9214 90.9977 22.1206C90.943 22.3159 90.8884 22.4995 90.8337 22.6714C90.7829 22.8433 90.7438 22.9761 90.7165 23.0698L89.8962 25.4136H92.4157ZM99.1894 22.3901C99.9589 22.3901 100.576 22.6714 101.041 23.2339C101.51 23.7964 101.744 24.6323 101.744 25.7417C101.744 26.4761 101.635 27.0952 101.416 27.5991C101.201 28.0991 100.898 28.478 100.508 28.7358C100.121 28.9897 99.6698 29.1167 99.1542 29.1167C98.8261 29.1167 98.5409 29.0737 98.2988 28.9878C98.0566 28.9019 97.8495 28.7905 97.6777 28.6538C97.5058 28.5132 97.3613 28.3608 97.2441 28.1968H97.162C97.1816 28.353 97.1991 28.5269 97.2148 28.7183C97.2343 28.9058 97.2441 29.0776 97.2441 29.2339V31.8765H95.8613V22.5132H96.9863L97.1796 23.4097H97.2441C97.3652 23.2261 97.5116 23.0562 97.6835 22.8999C97.8593 22.7437 98.0702 22.6206 98.3163 22.5308C98.5663 22.437 98.8573 22.3901 99.1894 22.3901ZM98.8202 23.5151C98.4413 23.5151 98.1366 23.5913 97.9062 23.7437C97.6796 23.8921 97.5136 24.1167 97.4081 24.4175C97.3066 24.7183 97.2519 25.0952 97.2441 25.5483V25.7417C97.2441 26.2222 97.2929 26.6304 97.3905 26.9663C97.4921 27.2983 97.6581 27.5522 97.8886 27.728C98.123 27.8999 98.4394 27.9858 98.8378 27.9858C99.1738 27.9858 99.4511 27.894 99.6698 27.7104C99.8925 27.5269 100.059 27.2651 100.168 26.9253C100.277 26.5854 100.332 26.1851 100.332 25.7241C100.332 25.0249 100.207 24.4819 99.957 24.0952C99.7109 23.7085 99.332 23.5151 98.8202 23.5151ZM106.426 22.3901C107.195 22.3901 107.813 22.6714 108.278 23.2339C108.746 23.7964 108.981 24.6323 108.981 25.7417C108.981 26.4761 108.871 27.0952 108.653 27.5991C108.438 28.0991 108.135 28.478 107.744 28.7358C107.358 28.9897 106.906 29.1167 106.391 29.1167C106.063 29.1167 105.778 29.0737 105.535 28.9878C105.293 28.9019 105.086 28.7905 104.914 28.6538C104.742 28.5132 104.598 28.3608 104.481 28.1968H104.399C104.418 28.353 104.436 28.5269 104.451 28.7183C104.471 28.9058 104.481 29.0776 104.481 29.2339V31.8765H103.098V22.5132H104.223L104.416 23.4097H104.481C104.602 23.2261 104.748 23.0562 104.92 22.8999C105.096 22.7437 105.307 22.6206 105.553 22.5308C105.803 22.437 106.094 22.3901 106.426 22.3901ZM106.057 23.5151C105.678 23.5151 105.373 23.5913 105.143 23.7437C104.916 23.8921 104.75 24.1167 104.645 24.4175C104.543 24.7183 104.488 25.0952 104.481 25.5483V25.7417C104.481 26.2222 104.529 26.6304 104.627 26.9663C104.729 27.2983 104.895 27.5522 105.125 27.728C105.36 27.8999 105.676 27.9858 106.074 27.9858C106.41 27.9858 106.688 27.894 106.906 27.7104C107.129 27.5269 107.295 27.2651 107.404 26.9253C107.514 26.5854 107.569 26.1851 107.569 25.7241C107.569 25.0249 107.444 24.4819 107.194 24.0952C106.947 23.7085 106.569 23.5151 106.057 23.5151Z" fill="#FFFAFD"/>
<defs>
<filter id="filter0_b_168_154" x="-14" y="-14.7073" width="64" height="64" filterUnits="userSpaceOnUse" color-interpolation-filters="sRGB">
<feFlood flood-opacity="0" result="BackgroundImageFix"/>
<feGaussianBlur in="BackgroundImage" stdDeviation="10"/>
<feComposite in2="SourceAlpha" operator="in" result="effect1_backgroundBlur_168_154"/>
<feBlend mode="normal" in="SourceGraphic" in2="effect1_backgroundBlur_168_154" result="shape"/>
</filter>
<radialGradient id="paint0_diamond_168_154" cx="0" cy="0" r="1" gradientUnits="userSpaceOnUse" gradientTransform="translate(18.6938 59.7206) rotate(-91.484) scale(60.0651 44.3208)">
<stop stop-color="#CC509C"/>
<stop offset="0.899146" stop-color="#FF8DD2"/>
</radialGradient>
<linearGradient id="paint1_linear_168_154" x1="95.9552" y1="40.7868" x2="32.1568" y2="110.287" gradientUnits="userSpaceOnUse">
<stop offset="0.21955" stop-color="#FFCFEC" stop-opacity="0"/>
<stop offset="0.44469" stop-color="#FFC2E7"/>
<stop offset="0.706216" stop-color="#FFCFEC" stop-opacity="0"/>
</linearGradient>
<linearGradient id="paint2_linear_168_154" x1="6.96048" y1="5.4936" x2="7.86911" y2="15.5778" gradientUnits="userSpaceOnUse">
<stop stop-color="#FDC7E8"/>
<stop offset="1" stop-color="#FFBBE4" stop-opacity="0"/>
</linearGradient>
<radialGradient id="paint3_diamond_168_154" cx="0" cy="0" r="1" gradientUnits="userSpaceOnUse" gradientTransform="translate(18.4 49.1129) rotate(-91.484) scale(45.0488 33.2406)">
<stop stop-color="#CC509C"/>
<stop offset="0.899146" stop-color="#FF8DD2"/>
</radialGradient>
<linearGradient id="paint4_linear_168_154" x1="42" y1="5.29273" x2="21.6929" y2="44.6166" gradientUnits="userSpaceOnUse">
<stop offset="0.300943" stop-color="#FFCFEC" stop-opacity="0"/>
<stop offset="0.44469" stop-color="#FFC2E7"/>
<stop offset="0.571764" stop-color="#FFCFEC" stop-opacity="0"/>
</linearGradient>
<linearGradient id="paint5_linear_168_154" x1="20" y1="3.79272" x2="5.24789" y2="14.4492" gradientUnits="userSpaceOnUse">
<stop offset="0.0117417" stop-color="#FFBBE4" stop-opacity="0"/>
<stop offset="0.547656" stop-color="#FDC7E8"/>
<stop offset="1" stop-color="#FFBBE4" stop-opacity="0"/>
</linearGradient>
</defs>
</svg>
